<svg width="414" height="414" viewBox="0 0 414 414" fill="none" xmlns="http://www.w3.org/2000/svg">
<path d="M362.979 225.169L51.8413 231.344C47.4857 231.431 44 234.986 44 239.343V315.623C44 319.993 47.5067 323.554 51.8762 323.622L359.222 328.38C363.552 328.447 367.15 325.055 367.338 320.728L371.13 233.515C371.33 228.902 367.595 225.078 362.979 225.169Z" fill="white" stroke="white" stroke-width="2"/>
<path d="M73.1519 301.78L61.8185 301.981L75.7653 258.09L89.8043 257.841L105.299 301.21L93.9654 301.411L83.1395 268.956L82.7987 268.962L73.1519 301.78ZM71.3348 284.636L95.0242 284.216L95.1663 292.226L71.4769 292.646L71.3348 284.636ZM146.354 256.838L147.128 300.468L138.181 300.627L120.372 275.754L120.095 275.759L120.541 300.939L109.996 301.127L109.222 257.497L118.298 257.336L135.914 282.17L136.276 282.163L135.83 257.025L146.354 256.838ZM163.53 256.534L164.304 300.163L153.759 300.35L152.985 256.721L163.53 256.534ZM170.15 256.416L183.209 256.185L194.766 283.001L195.278 282.992L205.876 255.783L218.935 255.551L219.709 299.181L209.441 299.363L208.965 272.563L208.603 272.569L198.592 299.278L192.031 299.394L181.077 272.908L180.714 272.915L181.192 299.864L170.924 300.046L170.15 256.416ZM235.724 298.896L224.391 299.097L238.337 255.207L252.376 254.958L267.871 298.326L256.537 298.527L245.712 266.072L245.371 266.078L235.724 298.896ZM233.907 281.753L257.596 281.333L257.738 289.343L234.049 289.763L233.907 281.753ZM272.568 298.243L271.794 254.613L282.34 254.426L282.962 289.492L301.112 289.17L301.264 297.734L272.568 298.243ZM329.764 266.67C329.594 265.11 328.941 263.907 327.804 263.06C326.68 262.2 325.089 261.787 323.029 261.824C321.666 261.848 320.533 262.046 319.63 262.417C318.728 262.788 318.055 263.29 317.611 263.923C317.168 264.542 316.946 265.249 316.946 266.045C316.929 266.698 317.067 267.271 317.36 267.763C317.667 268.255 318.101 268.688 318.661 269.062C319.236 269.421 319.924 269.735 320.724 270.005C321.524 270.275 322.423 270.508 323.421 270.703L327.186 271.489C329.353 271.919 331.267 272.51 332.928 273.262C334.604 274.014 336.012 274.92 337.153 275.979C338.309 277.038 339.19 278.266 339.797 279.661C340.405 281.057 340.731 282.628 340.776 284.375C340.811 287.13 340.157 289.507 338.814 291.506C337.471 293.505 335.517 295.052 332.951 296.149C330.399 297.246 327.305 297.826 323.669 297.891C320.019 297.955 316.828 297.465 314.096 296.42C311.364 295.374 309.226 293.75 307.681 291.547C306.136 289.344 305.312 286.538 305.209 283.13L315.306 282.951C315.417 284.356 315.814 285.521 316.498 286.446C317.182 287.372 318.111 288.066 319.284 288.528C320.471 288.99 321.839 289.207 323.387 289.18C324.807 289.155 326.011 288.941 326.998 288.54C328 288.139 328.764 287.593 329.292 286.901C329.82 286.21 330.083 285.424 330.081 284.543C330.052 283.72 329.784 283.021 329.277 282.448C328.769 281.86 327.993 281.362 326.949 280.955C325.919 280.533 324.605 280.151 323.008 279.81L318.43 278.826C314.637 278.026 311.636 276.68 309.429 274.787C307.222 272.88 306.096 270.272 306.051 266.962C305.989 264.264 306.671 261.887 308.098 259.83C309.525 257.773 311.521 256.153 314.086 254.971C316.65 253.789 319.587 253.169 322.896 253.11C326.276 253.05 329.219 253.574 331.725 254.68C334.245 255.772 336.212 257.335 337.626 259.37C339.04 261.405 339.786 263.778 339.862 266.491L329.764 266.67Z" fill="#0A0A0F"/>
<path d="M200.503 164.135L119.873 165.417C115.505 165.487 112 169.048 112 173.416V213.572C112 218.154 115.841 221.8 120.417 221.561L199.388 217.442C203.502 217.228 206.781 213.924 206.964 209.808L208.623 172.489C208.827 167.886 205.111 164.062 200.503 164.135Z" fill="white" stroke="white" stroke-width="2"/>
<path d="M137.097 201H132.562L138.452 183.545H144.068L149.957 201H145.423L141.324 187.943H141.188L137.097 201ZM136.491 194.131H145.969V197.335H136.491V194.131ZM151.837 201V183.545H159.047C160.354 183.545 161.482 183.781 162.43 184.253C163.385 184.719 164.121 185.389 164.638 186.264C165.155 187.134 165.413 188.165 165.413 189.358C165.413 190.568 165.149 191.597 164.621 192.443C164.092 193.284 163.342 193.926 162.371 194.369C161.399 194.807 160.249 195.026 158.919 195.026H154.359V191.702H158.135C158.771 191.702 159.303 191.619 159.729 191.455C160.161 191.284 160.487 191.028 160.709 190.688C160.93 190.341 161.041 189.898 161.041 189.358C161.041 188.818 160.93 188.372 160.709 188.02C160.487 187.662 160.161 187.395 159.729 187.219C159.297 187.037 158.766 186.946 158.135 186.946H156.055V201H151.837ZM161.663 193.023L166.01 201H161.408L157.146 193.023H161.663ZM167.727 201V183.545H179.898V186.972H171.946V190.551H179.276V193.986H171.946V197.574H179.898V201H167.727Z" fill="#0A0A0F"/>
<path d="M176.596 64.1682L51.3298 66.8334C46.9788 66.926 43.5 70.4796 43.5 74.8316V150.746C43.5 155.262 47.2359 158.883 51.7499 158.742L179.489 154.75C183.911 154.612 187.381 150.911 187.234 146.489L184.762 71.9013C184.617 67.5225 180.976 64.075 176.596 64.1682Z" fill="white" stroke="white" stroke-width="2"/>
<path d="M73.4022 136.032L59.4721 92.773L71.1222 92.4427L78.5135 120.838L78.8756 120.828L85.5837 92.0328L95.0828 91.7636L103.413 120.197L103.775 120.186L109.566 91.353L121.194 91.0234L109.758 135.001L99.5991 135.289L90.9902 109.06L90.6494 109.069L83.5402 135.745L73.4022 136.032ZM126.786 134.519L125.55 90.9L155.964 90.0379L156.207 98.5998L136.335 99.163L136.589 108.108L154.905 107.589L155.149 116.172L136.832 116.691L137.086 125.658L156.958 125.095L157.2 133.657L126.786 134.519Z" fill="#0A0A0F"/>
<path d="M99.5054 325.677L85.4999 313.258L103.839 309.505L116.258 295.5L120.011 313.839L134.016 326.258L115.677 330.011L103.258 344.016L99.5054 325.677Z" fill="#7F68F3"/>
<path d="M262.089 139.396L240.172 119.961L268.87 114.089L288.305 92.1717L294.178 120.87L316.095 140.305L287.396 146.178L267.961 168.095L262.089 139.396Z" fill="#7F68F3"/>
</svg>
