<svg width="414" height="414" viewBox="0 0 414 414" fill="none" xmlns="http://www.w3.org/2000/svg">
<path d="M362.479 225.169L51.3413 231.344C46.9857 231.431 43.5 234.986 43.5 239.343V315.623C43.5 319.993 47.0067 323.554 51.3762 323.622L358.722 328.38C363.052 328.447 366.65 325.055 366.838 320.728L370.63 233.515C370.83 228.902 367.095 225.078 362.479 225.169Z" fill="#0A0A0F" stroke="white" stroke-width="2"/>
<path d="M72.6519 301.78L61.3185 301.981L75.2653 258.09L89.3043 257.841L104.799 301.21L93.4654 301.411L82.6395 268.956L82.2987 268.962L72.6519 301.78ZM70.8348 284.636L94.5242 284.216L94.6663 292.226L70.9769 292.646L70.8348 284.636ZM145.854 256.838L146.628 300.468L137.681 300.627L119.872 275.754L119.595 275.759L120.041 300.939L109.496 301.127L108.722 257.497L117.798 257.336L135.414 282.17L135.776 282.163L135.33 257.025L145.854 256.838ZM163.03 256.534L163.804 300.163L153.259 300.35L152.485 256.721L163.03 256.534ZM169.65 256.416L182.709 256.185L194.266 283.001L194.778 282.992L205.376 255.783L218.435 255.551L219.209 299.181L208.941 299.363L208.465 272.563L208.103 272.569L198.092 299.278L191.531 299.394L180.577 272.908L180.214 272.915L180.692 299.864L170.424 300.046L169.65 256.416ZM235.224 298.896L223.891 299.097L237.837 255.207L251.876 254.958L267.371 298.326L256.037 298.527L245.212 266.072L244.871 266.078L235.224 298.896ZM233.407 281.753L257.096 281.333L257.238 289.343L233.549 289.763L233.407 281.753ZM272.068 298.243L271.294 254.613L281.84 254.426L282.462 289.492L300.612 289.17L300.764 297.734L272.068 298.243ZM329.264 266.67C329.094 265.11 328.441 263.907 327.304 263.06C326.18 262.2 324.589 261.787 322.529 261.824C321.166 261.848 320.033 262.046 319.13 262.417C318.228 262.788 317.555 263.29 317.111 263.923C316.668 264.542 316.446 265.249 316.446 266.045C316.429 266.698 316.567 267.271 316.86 267.763C317.167 268.255 317.601 268.688 318.161 269.062C318.736 269.421 319.424 269.735 320.224 270.005C321.024 270.275 321.923 270.508 322.921 270.703L326.686 271.489C328.853 271.919 330.767 272.51 332.428 273.262C334.104 274.014 335.512 274.92 336.653 275.979C337.809 277.038 338.69 278.266 339.297 279.661C339.905 281.057 340.231 282.628 340.276 284.375C340.311 287.13 339.657 289.507 338.314 291.506C336.971 293.505 335.017 295.052 332.451 296.149C329.899 297.246 326.805 297.826 323.169 297.891C319.519 297.955 316.328 297.465 313.596 296.42C310.864 295.374 308.726 293.75 307.181 291.547C305.636 289.344 304.812 286.538 304.709 283.13L314.806 282.951C314.917 284.356 315.314 285.521 315.998 286.446C316.682 287.372 317.611 288.066 318.784 288.528C319.971 288.99 321.339 289.207 322.887 289.18C324.307 289.155 325.511 288.941 326.498 288.54C327.5 288.139 328.264 287.593 328.792 286.901C329.32 286.21 329.583 285.424 329.581 284.543C329.552 283.72 329.284 283.021 328.777 282.448C328.269 281.86 327.493 281.362 326.449 280.955C325.419 280.533 324.105 280.151 322.508 279.81L317.93 278.826C314.137 278.026 311.136 276.68 308.929 274.787C306.722 272.88 305.596 270.272 305.551 266.962C305.489 264.264 306.171 261.887 307.598 259.83C309.025 257.773 311.021 256.153 313.586 254.971C316.15 253.789 319.087 253.169 322.396 253.11C325.776 253.05 328.719 253.574 331.225 254.68C333.745 255.772 335.712 257.335 337.126 259.37C338.54 261.405 339.286 263.778 339.362 266.491L329.264 266.67Z" fill="white"/>
<path d="M200.003 164.135L119.373 165.417C115.005 165.487 111.5 169.048 111.5 173.416V213.572C111.5 218.154 115.341 221.8 119.917 221.561L198.888 217.442C203.002 217.228 206.281 213.924 206.464 209.808L208.123 172.489C208.327 167.886 204.611 164.062 200.003 164.135Z" fill="#0A0A0F" stroke="white" stroke-width="2"/>
<path d="M136.597 201H132.062L137.952 183.545H143.568L149.457 201H144.923L140.824 187.943H140.688L136.597 201ZM135.991 194.131H145.469V197.335H135.991V194.131ZM151.337 201V183.545H158.547C159.854 183.545 160.982 183.781 161.93 184.253C162.885 184.719 163.621 185.389 164.138 186.264C164.655 187.134 164.913 188.165 164.913 189.358C164.913 190.568 164.649 191.597 164.121 192.443C163.592 193.284 162.842 193.926 161.871 194.369C160.899 194.807 159.749 195.026 158.419 195.026H153.859V191.702H157.635C158.271 191.702 158.803 191.619 159.229 191.455C159.661 191.284 159.987 191.028 160.209 190.688C160.43 190.341 160.541 189.898 160.541 189.358C160.541 188.818 160.43 188.372 160.209 188.02C159.987 187.662 159.661 187.395 159.229 187.219C158.797 187.037 158.266 186.946 157.635 186.946H155.555V201H151.337ZM161.163 193.023L165.51 201H160.908L156.646 193.023H161.163ZM167.227 201V183.545H179.398V186.972H171.446V190.551H178.776V193.986H171.446V197.574H179.398V201H167.227Z" fill="white"/>
<path d="M176.096 64.1682L50.8298 66.8334C46.4788 66.926 43 70.4796 43 74.8316V150.746C43 155.262 46.7359 158.883 51.2499 158.742L178.989 154.75C183.411 154.612 186.881 150.911 186.734 146.489L184.262 71.9013C184.117 67.5225 180.476 64.075 176.096 64.1682Z" fill="#0A0A0F" stroke="white" stroke-width="2"/>
<path d="M72.9023 136.032L58.9721 92.773L70.6223 92.4427L78.0136 120.838L78.3757 120.828L85.0838 92.0328L94.5828 91.7636L102.913 120.197L103.275 120.186L109.066 91.353L120.695 91.0234L109.258 135.001L99.0992 135.289L90.4903 109.06L90.1495 109.069L83.0403 135.745L72.9023 136.032ZM126.286 134.519L125.05 90.9L155.464 90.0379L155.707 98.5998L135.835 99.163L136.089 108.108L154.405 107.589L154.649 116.172L136.332 116.691L136.586 125.658L156.458 125.095L156.7 133.657L126.286 134.519Z" fill="white"/>
<path d="M99.0054 325.677L84.9999 313.258L103.339 309.505L115.758 295.5L119.511 313.839L133.516 326.258L115.177 330.011L102.758 344.016L99.0054 325.677Z" fill="#7F68F3"/>
<path d="M261.589 139.396L239.672 119.961L268.37 114.089L287.805 92.1717L293.678 120.87L315.595 140.305L286.896 146.178L267.461 168.095L261.589 139.396Z" fill="#7F68F3"/>
</svg>
